<svg xmlns="http://www.w3.org/2000/svg" xmlns:xlink="http://www.w3.org/1999/xlink" width="500" zoomAndPan="magnify" viewBox="0 0 375 119.999999" height="160" preserveAspectRatio="xMidYMid meet" version="1.0"><defs><g/></defs><g fill="#ffffff" fill-opacity="1"><g transform="translate(26.156251, 90.488022)"><g><path d="M 53.5625 -47.65625 C 53.5625 -44.320312 53.078125 -41.164062 52.109375 -38.1875 C 51.140625 -35.21875 49.65625 -32.597656 47.65625 -30.328125 C 45.65625 -28.066406 43.132812 -26.285156 40.09375 -24.984375 C 37.0625 -23.679688 33.441406 -23.03125 29.234375 -23.03125 L 25.234375 -23.03125 L 25.234375 -39.25 L 28.140625 -39.34375 C 30.804688 -39.476562 32.804688 -40.144531 34.140625 -41.34375 C 35.472656 -42.550781 36.140625 -44.625 36.140625 -47.5625 C 36.140625 -49.5625 35.503906 -51.3125 34.234375 -52.8125 C 32.972656 -54.3125 31.175781 -55.0625 28.84375 -55.0625 C 26.769531 -55.0625 25.164062 -54.410156 24.03125 -53.109375 C 22.894531 -51.804688 22.328125 -50.191406 22.328125 -48.265625 L 22.328125 0 L 4.90625 0 L 4.90625 -45.859375 C 4.90625 -49.597656 5.453125 -53.035156 6.546875 -56.171875 C 7.648438 -59.304688 9.269531 -61.988281 11.40625 -64.21875 C 13.550781 -66.457031 16.175781 -68.191406 19.28125 -69.421875 C 22.382812 -70.660156 25.90625 -71.28125 29.84375 -71.28125 C 33.3125 -71.28125 36.492188 -70.660156 39.390625 -69.421875 C 42.296875 -68.191406 44.800781 -66.507812 46.90625 -64.375 C 49.007812 -62.238281 50.644531 -59.734375 51.8125 -56.859375 C 52.976562 -53.992188 53.5625 -50.925781 53.5625 -47.65625 Z M 53.5625 -47.65625 "/></g></g></g><g fill="#ffffff" fill-opacity="1"><g transform="translate(81.819223, 90.488022)"><g><path d="M 52.359375 -23.03125 C 52.359375 -19.6875 51.773438 -16.546875 50.609375 -13.609375 C 49.441406 -10.679688 47.773438 -8.113281 45.609375 -5.90625 C 43.441406 -3.707031 40.851562 -1.972656 37.84375 -0.703125 C 34.84375 0.566406 31.503906 1.203125 27.828125 1.203125 C 24.160156 1.203125 20.820312 0.585938 17.8125 -0.640625 C 14.8125 -1.878906 12.226562 -3.597656 10.0625 -5.796875 C 7.894531 -8.003906 6.222656 -10.578125 5.046875 -13.515625 C 3.878906 -16.453125 3.296875 -19.625 3.296875 -23.03125 L 3.296875 -47.0625 C 3.296875 -50.46875 3.894531 -53.632812 5.09375 -56.5625 C 6.300781 -59.5 7.972656 -62.066406 10.109375 -64.265625 C 12.242188 -66.472656 14.828125 -68.191406 17.859375 -69.421875 C 20.898438 -70.660156 24.222656 -71.28125 27.828125 -71.28125 C 31.503906 -71.28125 34.859375 -70.644531 37.890625 -69.375 C 40.929688 -68.113281 43.519531 -66.378906 45.65625 -64.171875 C 47.789062 -61.972656 49.441406 -59.40625 50.609375 -56.46875 C 51.773438 -53.53125 52.359375 -50.394531 52.359375 -47.0625 Z M 20.125 -24.234375 C 20.125 -21.222656 20.707031 -18.929688 21.875 -17.359375 C 23.039062 -15.796875 25.023438 -15.015625 27.828125 -15.015625 C 30.640625 -15.015625 32.628906 -15.796875 33.796875 -17.359375 C 34.960938 -18.929688 35.546875 -21.222656 35.546875 -24.234375 L 35.546875 -46.25 C 35.546875 -49.257812 34.992188 -51.546875 33.890625 -53.109375 C 32.785156 -54.679688 30.734375 -55.46875 27.734375 -55.46875 C 25.128906 -55.46875 23.207031 -54.734375 21.96875 -53.265625 C 20.738281 -51.796875 20.125 -49.457031 20.125 -46.25 Z M 20.125 -24.234375 "/></g></g></g><g fill="#ffffff" fill-opacity="1"><g transform="translate(137.482195, 90.488022)"><g><path d="M 42.453125 -70.09375 L 42.453125 -53.875 L 24.625 -53.875 C 23.625 -53.875 22.738281 -53.65625 21.96875 -53.21875 C 21.207031 -52.78125 20.828125 -52.03125 20.828125 -50.96875 C 20.828125 -50.03125 21.492188 -48.957031 22.828125 -47.75 C 24.160156 -46.550781 26.226562 -45.050781 29.03125 -43.25 C 31.707031 -41.519531 34.144531 -39.800781 36.34375 -38.09375 C 38.550781 -36.394531 40.4375 -34.660156 42 -32.890625 C 43.570312 -31.117188 44.789062 -29.25 45.65625 -27.28125 C 46.519531 -25.3125 46.953125 -23.191406 46.953125 -20.921875 C 46.953125 -17.390625 46.550781 -14.421875 45.75 -12.015625 C 44.957031 -9.609375 43.691406 -7.570312 41.953125 -5.90625 C 39.816406 -3.769531 37.03125 -2.25 33.59375 -1.34375 C 30.15625 -0.445312 26.300781 0 22.03125 0 L 3.5 0 L 3.5 -16.21875 L 21.921875 -16.21875 C 23.660156 -16.21875 25.128906 -16.515625 26.328125 -17.109375 C 27.535156 -17.710938 28.140625 -18.6875 28.140625 -20.03125 C 28.140625 -21.289062 27.421875 -22.585938 25.984375 -23.921875 C 24.546875 -25.265625 22.394531 -26.90625 19.53125 -28.84375 C 16.789062 -30.644531 14.382812 -32.394531 12.3125 -34.09375 C 10.25 -35.789062 8.53125 -37.488281 7.15625 -39.1875 C 5.789062 -40.894531 4.753906 -42.648438 4.046875 -44.453125 C 3.347656 -46.253906 3 -48.191406 3 -50.265625 C 3 -53.535156 3.515625 -56.40625 4.546875 -58.875 C 5.585938 -61.34375 7.039062 -63.410156 8.90625 -65.078125 C 10.78125 -66.742188 13 -67.992188 15.5625 -68.828125 C 18.132812 -69.671875 20.957031 -70.09375 24.03125 -70.09375 Z M 42.453125 -70.09375 "/></g></g></g><g fill="#ffffff" fill-opacity="1"><g transform="translate(187.538833, 90.488022)"><g><path d="M 43.75 -70.09375 L 43.75 -53.265625 L 30.9375 -53.265625 L 30.9375 0 L 13.515625 0 L 13.515625 -53.265625 L 0.703125 -53.265625 L 0.703125 -70.09375 Z M 43.75 -70.09375 "/></g></g></g><g fill="#ffffff" fill-opacity="1"><g transform="translate(231.989125, 90.488022)"><g><path d="M 27.234375 -17.71875 L 21.125 -27.328125 L 34.25 -35.9375 C 33.113281 -36.613281 32.039062 -37.066406 31.03125 -37.296875 C 30.03125 -37.523438 29.03125 -37.640625 28.03125 -37.640625 C 26.5 -37.640625 25.113281 -37.289062 23.875 -36.59375 C 22.644531 -35.894531 21.578125 -34.960938 20.671875 -33.796875 C 19.773438 -32.628906 19.078125 -31.289062 18.578125 -29.78125 C 18.078125 -28.28125 17.828125 -26.726562 17.828125 -25.125 C 17.828125 -23.394531 18.125 -21.796875 18.71875 -20.328125 C 19.320312 -18.859375 20.125 -17.554688 21.125 -16.421875 C 22.125 -15.285156 23.273438 -14.398438 24.578125 -13.765625 C 25.878906 -13.128906 27.234375 -12.8125 28.640625 -12.8125 C 31.441406 -12.8125 34.175781 -13.828125 36.84375 -15.859375 C 39.507812 -17.898438 41.546875 -20.523438 42.953125 -23.734375 L 54.46875 -17.828125 C 53.269531 -14.953125 51.734375 -12.347656 49.859375 -10.015625 C 47.992188 -7.679688 45.890625 -5.675781 43.546875 -4 C 41.210938 -2.332031 38.691406 -1.046875 35.984375 -0.140625 C 33.285156 0.753906 30.46875 1.203125 27.53125 1.203125 C 24.125 1.203125 20.898438 0.519531 17.859375 -0.84375 C 14.828125 -2.21875 12.160156 -4.085938 9.859375 -6.453125 C 7.554688 -8.828125 5.738281 -11.546875 4.40625 -14.609375 C 3.070312 -17.679688 2.40625 -20.921875 2.40625 -24.328125 C 2.40625 -27.734375 3.070312 -30.96875 4.40625 -34.03125 C 5.738281 -37.101562 7.554688 -39.804688 9.859375 -42.140625 C 12.160156 -44.484375 14.828125 -46.351562 17.859375 -47.75 C 20.898438 -49.15625 24.125 -49.859375 27.53125 -49.859375 C 33.132812 -49.859375 37.851562 -48.457031 41.6875 -45.65625 C 45.53125 -42.851562 48.753906 -39.082031 51.359375 -34.34375 Z M 27.234375 -17.71875 "/></g></g></g><g fill="#ffffff" fill-opacity="1"><g transform="translate(287.652086, 90.488022)"><g><path d="M 53.671875 -50.46875 C 53.671875 -41.65625 49.695312 -36.847656 41.75 -36.046875 L 41.75 -35.84375 C 42.21875 -35.707031 42.914062 -35.539062 43.84375 -35.34375 C 44.78125 -35.144531 45.519531 -34.976562 46.0625 -34.84375 C 48.789062 -33.976562 50.757812 -32.941406 51.96875 -31.734375 C 53.832031 -29.929688 54.765625 -27.429688 54.765625 -24.234375 L 54.765625 0 L 37.140625 0 L 37.140625 -21.328125 C 37.140625 -22.992188 36.554688 -24.273438 35.390625 -25.171875 C 34.222656 -26.078125 31.90625 -26.597656 28.4375 -26.734375 L 26.640625 -26.734375 L 26.640625 -42.546875 C 29.835938 -42.546875 32.203125 -43.015625 33.734375 -43.953125 C 35.273438 -44.890625 36.046875 -46.757812 36.046875 -49.5625 C 36.046875 -51.5 35.359375 -52.898438 33.984375 -53.765625 C 32.617188 -54.628906 31.238281 -55.0625 29.84375 -55.0625 C 27.570312 -55.0625 25.953125 -54.328125 24.984375 -52.859375 C 24.015625 -51.390625 23.53125 -49.054688 23.53125 -45.859375 L 23.53125 0 L 5.3125 0 L 5.3125 -45.859375 C 5.3125 -49.660156 5.875 -53.128906 7 -56.265625 C 8.132812 -59.398438 9.769531 -62.066406 11.90625 -64.265625 C 14.050781 -66.472656 16.65625 -68.191406 19.71875 -69.421875 C 22.789062 -70.660156 26.296875 -71.28125 30.234375 -71.28125 C 33.578125 -71.28125 36.679688 -70.828125 39.546875 -69.921875 C 42.421875 -69.023438 44.90625 -67.707031 47 -65.96875 C 49.101562 -64.238281 50.738281 -62.070312 51.90625 -59.46875 C 53.082031 -56.863281 53.671875 -53.863281 53.671875 -50.46875 Z M 53.671875 -50.46875 "/></g></g></g></svg>